<svg width="407px" height="113px" viewBox="0 0 407 113" version="1.1" xmlns="http://www.w3.org/2000/svg" xmlns:xlink="http://www.w3.org/1999/xlink">

    <title>cv_logo_black</title>
    <desc>Created with Sketch.</desc>
    <defs></defs>
    <g id="Page-1" stroke="none" stroke-width="1" fill="none" fill-rule="evenodd">
        <g id="cv_logo_black">
            <g id="Group" fill="#000000" fill-rule="nonzero">
                <path d="M28.6,16.5 C28.2,18 27.6,19.7 25.5,21.7 C23.6,23.5 20.4,25.4 14.3,25.4 C5.9,25.4 0,21 0,12.6 C0,3.7 7.2,0 14.7,0 C17.4,0 24.6,0.6 27.8,6.4 L21.8,8.3 C21.2,7.3 19.3,4.7 14.6,4.7 C9.2,4.7 6.2,8.2 6.2,12.8 C6.2,18 10.3,20.8 14.8,20.8 C20,20.8 21.5,18.1 22.3,16.6 L28.6,16.5 M0,12.6 C0,3.7 7.2,0 14.7,0" id="Shape"></path>
                <polygon id="Shape" points="31.2 0.7 37.2 0.7 37.2 9.9 51.3 9.9 51.3 0.7 57.3 0.7 57.3 24.6 51.3 24.6 51.3 14.4 37.2 14.4 37.2 24.6 31.2 24.6"></polygon>
                <path d="M71.6,0.7 L78,0.7 L89.5,24.5 L82.8,24.5 L80.4,19.3 L68.9,19.3 L66.6,24.5 L60.1,24.5 L71.6,0.7 Z M75.4,8.1 C75.2,7.8 75.1,7.5 75,7.2 C74.9,6.9 74.8,6.6 74.8,6.3 C74.7,6.6 74.6,6.9 74.6,7.1 C74.5,7.4 74.4,7.7 74.2,8 L70.9,15.2 L78.6,15.2 L75.4,8.1 Z" id="Shape"></path>
                <polygon id="Shape" points="92.7 0.7 98.6 0.7 98.6 20.2 110.7 20.2 110.7 24.6 92.7 24.6"></polygon>
                <path d="M114.3,0.7 L122.9,0.7 L129.1,15.3 C129.7,16.9 130,17.5 130.3,18.8 C130.5,17.8 130.7,17.2 131.4,15.5 L137.6,0.6 L146.1,0.6 L146.1,24.4 L140.5,24.4 L140.5,7.9 C140.5,7.2 140.6,6.6 140.7,5.7 C140.5,6.4 140.4,6.7 140,7.5 L133,24.6 L127.6,24.6 L120.5,7.9 C120.1,7 120.1,6.7 119.8,5.7 C119.9,6.7 119.9,6.9 120,7.8 L120,24.6 L114.4,24.6 L114.4,0.7" id="Shape"></path>
                <polygon id="Shape" points="151.7 0.7 173.9 0.7 173.9 5 157.7 5 157.7 10.4 172 10.4 172 14.6 157.7 14.6 157.7 20.3 174.6 20.3 174.6 24.6 151.7 24.6"></polygon>
                <path d="M211.7,17.3 C213.1,20.1 216.5,21 219.8,20.9 C221.3,20.9 225.8,20.6 225.8,17.7 C225.8,16 224.1,15.6 222.8,15.4 C221.8,15.2 216.9,14.6 215.8,14.4 C213.6,14 208,13.1 208,7.7 C208,6.5 208.3,5.3 208.9,4.3 C210.8,1.1 215.2,0.1 219,0.1 C222.5,2.30371278e-15 225.2,0.5 227.6,1.8 C230.1,3.1 231.1,4.8 231.6,5.6 L225.9,7 C225.7,6.6 225.2,5.8 223.8,5.1 C222.2,4.4 220.1,4.3 219,4.3 C216.4,4.3 213.7,4.9 213.7,7.2 C213.7,8.8 215.1,9.1 216.9,9.5 C217.9,9.7 222.8,10.4 223.9,10.6 C226.7,11.1 231.4,12 231.5,17.2 C231.6,24.9 223,25.3 219.6,25.3 C215.7,25.4 209.6,24.8 206.4,18.8 L211.7,17.3" id="Shape"></path>
                <path d="M179.1,0.8 L195.5,0.8 C198.2,0.8 200.7,1 202.7,3.3 C203.9,4.7 204.3,6.5 204.3,7.9 C204.3,9.7 203.7,11.9 202,13.2 C200.7,14.2 199.1,14.5 198.1,14.7 L205.3,24.7 L198.4,24.7 L191.9,15.1 L185,15.1 L185,24.7 L179,24.7 L179,0.8 L179.1,0.8 Z M185,10.8 L194.5,10.8 C195.8,10.8 198.1,10.6 198.1,8 C198.1,7.5 198,6.7 197.6,6.1 C197.2,5.5 196.6,5 194.2,5 L185,5 L185,10.8 Z" id="Shape"></path>
            </g>
            <path d="M291.6,81.4 C288.6,84.3 292.2,90.7 295.8,95.5 C295.8,95.5 297.6,86.5 294.9,82.7 C293.7,80.8 292.1,81 291.6,81.4 Z" id="Shape"></path>
            <path d="M396.7,64.2 C395.8,63.4 394.6,63.2 393.7,63.4 C383.9,66.1 389.4,91.9 389.4,91.9 C389.4,91.9 393.8,91.3 397.8,92.4 L397.9,92.4 C399.1,90.3 404.3,70.9 396.7,64.2 Z" id="Shape"></path>
            <path d="M357,96.1 C356.8,93.6 356.6,91.6 356.5,89.9 C356.4,88.2 356.3,86.8 356.2,85.8 C356.1,84.5 356,83.5 355.9,82.7 C354.9,82.7 353.8,82.8 352.7,82.8 C351.7,82.8 350.6,82.9 349.3,82.9 C336.4,83.4 338.1,84.2 338.1,84.6 L356.5,100.9 C356.8,101.2 357.2,101.6 357.3,101.5 C357.4,101.3 357.3,100.5 357.3,99.7 C357.2,98.9 357.1,97.7 357,96.1 Z" id="Shape"></path>
            <path d="M357,96.1 C356.8,93.6 356.6,91.6 356.5,89.9 C356.4,88.2 356.3,86.8 356.2,85.8 C356.1,84.5 356,83.5 355.9,82.7 C354.9,82.7 353.8,82.8 352.7,82.8 C351.7,82.8 350.6,82.9 349.3,82.9 C336.4,83.4 338.1,84.2 338.1,84.6 L356.5,100.9 C356.8,101.2 357.2,101.6 357.3,101.5 C357.4,101.3 357.3,100.5 357.3,99.7 C357.2,98.9 357.1,97.7 357,96.1 Z" id="Shape"></path>
            <path d="M291.6,81.4 C288.6,84.3 292.2,90.7 295.8,95.5 C295.8,95.5 297.6,86.5 294.9,82.7 C293.7,80.8 292.1,81 291.6,81.4 Z" id="Shape"></path>
            <path d="M396.7,64.2 C395.8,63.4 394.6,63.2 393.7,63.4 C383.9,66.1 389.4,91.9 389.4,91.9 C389.4,91.9 393.8,91.3 397.8,92.4 L397.9,92.4 C399.1,90.3 404.3,70.9 396.7,64.2 Z" id="Shape"></path>
            <g id="Group" transform="translate(0.000000, 30.000000)" fill="#000000" fill-rule="nonzero">
                <path d="M0,1.5 L11.4,1.5 L22.4,28.5 C23,30.2 23.2,30.7 23.6,32.4 C24.1,30.5 24.2,30.1 24.9,28.5 L36,1.5 L47.1,1.5 L28.7,42.7 L18.7,42.7 L0,1.5 Z" id="Shape"></path>
                <polygon id="Shape" points="49.9 1.5 88.3 1.5 88.3 8.9 60.2 8.9 60.2 18.2 84.6 18.2 84.6 25.5 60.2 25.5 60.2 35.3 89.5 35.3 89.5 42.7 49.9 42.7"></polygon>
                <path d="M93.8,1.5 L104.1,1.5 L124.3,24.4 C126.7,27.3 127.2,27.8 129.8,31.1 C129.5,27.2 129.5,26.1 129.4,22.6 L129.4,1.5 L139.3,1.5 L139.3,42.7 L129,42.7 L108.6,19.5 C106.4,17 105.6,15.9 103.3,13 C103.6,16.2 103.6,16.9 103.6,20 L103.6,42.7 L93.8,42.7 L93.8,1.5 Z" id="Shape"></path>
                <polygon id="Shape" points="143.2 1.5 184.1 1.5 184.1 9 168.8 9 168.8 42.7 158.5 42.7 158.5 9 143.2 9"></polygon>
                <path d="M187.8,1.5 L198.1,1.5 L198.1,25.7 C198.1,29.4 198.9,32.5 202.8,34.3 C206.1,35.9 209.1,35.8 212.1,35.6 C216,35.2 218.5,34.2 220.2,32.3 C221.2,31.1 222.1,29.8 222,25.6 L222,1.5 L232.3,1.5 L232.3,25.4 C232.2,29.8 232.2,33.9 228.7,37.8 C224.4,42.5 216.5,44.1 210.3,44.1 C207.4,44.1 204.5,43.8 201.6,43.1 C199.6,42.6 197,41.8 194.5,40.1 C188,35.7 188,30.3 188,25.4 L188,1.5 L187.8,1.5 Z" id="Shape"></path>
                <path d="M237.9,1.5 L266.3,1.5 C271,1.5 275.2,1.9 278.7,5.9 C280.8,8.4 281.4,11.4 281.4,13.8 C281.4,17 280.3,20.7 277.4,22.9 C275.2,24.6 272.3,25.2 270.7,25.5 L283.2,42.7 L271,42.7 L260,26.1 L248.3,26.1 L248.3,42.7 L238,42.7 L238,1.5 L237.9,1.5 Z M248.3,18.8 L264.8,18.8 C267,18.8 271,18.5 271,13.9 C271,13.1 270.9,11.7 270.2,10.7 C269.4,9.7 268.4,8.7 264.4,8.7 L248.4,8.7 L248.4,18.8 L248.3,18.8 Z" id="Shape"></path>
                <path d="M298.5,35.3 L298.5,25.4 L322.9,25.4 L322.9,18.1 L298.5,18.1 L298.5,8.8 L326.6,8.8 L326.6,1.4 L288.2,1.4 L288.2,42.6 L304.1,42.6 C304.6,39.2 305.1,36.6 305.4,35.2 L298.5,35.2 L298.5,35.3 Z" id="Shape"></path>
                <path d="M327.8,42.7 L327.8,35.3 L307.1,35.3 C307.1,36.4 306.7,39.1 306.4,42.7 L327.8,42.7 Z" id="Shape"></path>
                <path d="M373.9,30.3 C373.9,21.3 365.8,19.5 361,18.6 C359.1,18.2 350.7,16.8 349,16.4 C345.9,15.7 343.5,15 343.5,12.3 C343.5,8.4 348.2,7.5 352.7,7.5 C354.7,7.5 358.2,7.7 361,9.1 C363.5,10.3 364.3,11.8 364.6,12.5 L374.4,10 C373.6,8.7 371.8,5.6 367.6,3.3 C363.3,1 358.7,0.1 352.7,0.1 C346.2,0.1 338.6,1.6 335.1,7.1 C334,8.8 333.5,10.9 333.5,12.9 C333.5,22.2 343.1,24 346.9,24.7 C348.8,25 357.3,26.3 359,26.7 C361.2,27.1 364.1,27.8 364.1,30.8 C364.1,34.4 360,35.6 356.8,36 C357.1,37.9 357.3,40.4 357.6,43.6 C364.2,43.2 373.9,40.6 373.9,30.3 Z" id="Shape"></path>
                <path d="M353.6,36.4 C348,36.4 342.1,34.9 339.8,29.9 L330.4,32.4 C335.7,42.8 346.2,44 352.9,44 C353.5,44 354.3,44 355.2,44 C355,41.4 354.8,38.5 354.7,36.4 C354.3,36.4 353.9,36.4 353.6,36.4 Z" id="Shape"></path>
            </g>
            <g id="Group" transform="translate(255.000000, 60.000000)" fill="#000000" fill-rule="nonzero">
                <path d="M123.9,19.9 C123.6,19.8 123.3,20 122.9,20.4 C122.6,20.8 122.3,21.3 122.1,21.9 C121.9,22.5 121.8,23.1 121.8,23.6 C121.8,24.2 122,24.6 122.3,25 C122.7,25.3 122.9,25.5 123.1,25.4 C123.3,25.3 123.4,25.1 123.5,24.8 C123.6,24.5 123.7,24.1 123.9,23.7 C124,23.3 124.3,22.9 124.6,22.6 C125.2,22 125.4,21.4 125.1,20.8 C125,20.3 124.5,20 123.9,19.9 Z" id="Shape"></path>
                <path d="M52,4.8 C51.9,3 50.9,3.3 50.5,4.7 C50.5,4.9 50.4,5.1 50.4,5.3 L52.1,5.3 C52.1,5.1 52.1,4.9 52,4.8 Z" id="Shape"></path>
                <path d="M87,35.3 C86.8,34.8 86.6,34.6 86.4,34.6 C86.2,34.6 86,34.9 85.7,35.4 C85.4,35.9 82,44 78.2,46.7 C74.2,49.5 73.2,40 80.1,34 C81.6,32.7 83.6,33.6 81,38.4 C80.6,39 79,42.1 81.2,40.2 C82,39.5 84.9,34.7 83.4,32.4 C82,30.4 79.2,32.3 78.4,32.9 C70.5,39.9 71.4,45.9 74.1,48.4 C68.2,50.3 62.7,45.6 60.8,33.9 C60.4,31.5 58.4,32.3 58.1,33.3 C58,33.7 55.4,43.5 53.9,46.7 C53.4,47.8 53.1,47.8 53,47.7 C48.2,44.1 50.2,23.9 51.4,12.5 L49.2,12.5 C48.1,20.3 46.9,32 47.8,40.6 C44.8,41.2 42.4,37.4 42.4,37.4 C43.4,26.8 43.1,22.3 40.4,20 C37.6,17.6 35.1,19.3 34.4,20.7 C32.3,24.7 34.5,30.4 40.2,38.1 C40.3,38.2 37.6,48.9 32.7,47.7 C29.3,46.9 25,38.4 24.3,37.2 C22.5,34.3 21.5,37.8 21.2,38.3 C4.5,63.1 0.6,38.2 6.9,25.4 C8.5,22.1 7,22.4 5.5,24.9 C0.9,33.1 -3.4,51.8 9.4,52.1 C10.2,52.1 16.4,52.2 22.3,41.1 C22.6,40.5 23,39.9 23.1,40.1 C26.9,45.5 26.2,46.8 29.7,50.1 C30.7,51 31.7,51.5 32.8,51.5 C35.4,51.6 38,50.5 39.7,46.4 C41.1,43.1 41.6,40.3 41.6,40.3 C42.1,40.9 45.3,44.3 47.9,42 C48.5,46.8 49.9,50.4 52.4,51.7 C53.5,52.2 55.1,49.3 55.5,48.3 C56,47.4 56.4,46.3 56.8,45.2 C57.2,44.1 58.5,40.4 58.8,39.8 C59.1,39.2 59.3,38.3 59.5,38.2 C60.1,37.9 60.1,38.9 60.4,39.7 C60.7,40.5 62.1,51.6 71.5,50.7 C72,50.6 74,50 75.2,49.2 C76,49.6 76.9,49.8 77.7,49.6 C82,48.8 85.2,39.4 85.9,38.1 C86,38.6 86.1,48.9 90.8,50 C91.3,50.1 94.8,51.2 97.4,45.5 C97.8,44.7 98.2,43.7 98.1,43.9 C87.7,55.9 87.1,35.8 87,35.3 Z M40.8,35.5 C37.1,30.6 33.6,24.2 36.6,21.4 C37,21 38.7,20.8 40,22.7 C42.6,26.5 40.8,35.5 40.8,35.5 Z" id="Shape"></path>
                <path d="M105.7,46.5 C104.4,42.6 103.4,26.4 103.2,22.4 C106.2,21.9 119.3,21.4 127.4,13.4 C127.8,13 127.7,12.5 127.6,12.3 C127.4,12.1 127.2,12.1 126.8,12.3 C117.1,19.2 103,19.8 103,19.8 C102.9,17.6 102.7,15.6 102.6,13.9 C101.8,14 101,14 100.3,14 C100.5,17.1 100.7,19.7 100.7,20 C95.9,20.8 92.5,20.7 89.6,21 C86.7,21.2 84.3,21.3 82.5,21.3 C80.7,21.3 79.3,21.1 78.4,20.9 C77.5,20.7 76.6,20.5 75.9,20.3 C74.4,19.8 73.1,23.1 75.2,23.3 C80.7,23.8 94.9,36.1 104.5,50.8 C105.1,51.7 105.8,52.3 106,52.4 C106.2,52.5 106.4,52.5 106.6,52.3 C106.7,52.1 106.8,51.9 106.9,51.6 C106.9,51.3 106.9,50.9 106.9,50.5 C106.8,49.9 106,47.5 105.7,46.5 Z M102.2,41.5 C102.1,41.7 101.7,41.3 101.4,40.9 L83,24.6 C83,24.2 81.3,23.5 94.2,22.9 C95.5,22.8 96.6,22.8 97.6,22.8 C98.8,22.8 99.8,22.7 100.8,22.7 C100.9,23.5 101,24.5 101.1,25.8 C101.2,26.9 101.3,28.3 101.4,29.9 C101.5,31.6 101.7,33.7 101.9,36.1 C102,37.7 102.1,38.9 102.1,39.7 C102.2,40.5 102.3,41.3 102.2,41.5 Z" id="Shape"></path>
                <path d="M99.5,3.7 C99.5,3.9 99.6,4.9 99.7,6.4 C100.3,6.4 101,6.3 101.7,6.2 C100.5,-2.8 99.3,1.6 99.5,3.7 Z" id="Shape"></path>
                <path d="M128.7,44.3 C128.4,44.2 126.3,46.8 124.5,46.3 C118.2,44.4 123.5,31.1 123.4,30.6 C123.4,30.1 123.2,29.9 122.9,29.9 C122.5,29.9 122.1,30.3 121.8,30.9 C121.5,31.5 114.2,48.7 123.8,49.5 C126,49.7 127.8,47 128.7,44.9 C128.9,44.6 128.9,44.4 128.7,44.3 Z" id="Shape"></path>
                <path d="M150.9,37.3 C147.7,34.6 143.8,33 143.8,33 C145.1,30.5 152.6,9.1 142.4,2.8 C141.5,2.2 140.3,1.9 139.3,2 C125.7,3.7 132.2,32.2 132.2,32.2 C122.9,34.5 124.6,41.3 125.7,40.3 C125.9,40.1 124.4,36.5 132.5,34.7 C132.5,34.7 134.5,48.4 141.2,50.5 C142.2,50.8 142.9,50.4 141.8,49.7 C140.1,48.5 136,44.6 134.6,34.4 C134.6,34.4 138,33.6 141.9,34.6 C142.2,34.7 140,38.2 139.9,38.4 C139.8,38.7 139.8,38.8 140.1,38.7 C140.4,38.6 142,36.9 142.9,34.9 C142.9,34.9 146.5,35.7 150.6,37.7 C151,37.8 152.5,38.6 150.9,37.3 Z M142.9,32.5 L142.8,32.5 C138.8,31.3 134.4,32 134.4,32 C134.4,32 128.9,6.2 138.7,3.5 C139.6,3.2 140.8,3.5 141.7,4.3 C149.3,10.9 144.1,30.3 142.9,32.5 Z" id="Shape"></path>
            </g>
        </g>
    </g>
</svg>
